<svg width="53" height="53" viewBox="0 0 53 53" fill="none" xmlns="http://www.w3.org/2000/svg">
<path d="M53 5.67857V47.3214C53 50.4577 50.4577 53 47.3214 53H5.67857C2.54234 53 0 50.4577 0 47.3214V5.67857C0 2.54234 2.54234 0 5.67857 0H47.3214C50.4577 0 53 2.54234 53 5.67857ZM35.9643 31.2321C34.2416 31.2321 32.6727 31.89 31.4944 32.9678L23.4547 28.1439C23.7293 27.0651 23.7293 25.9347 23.4547 24.8559L31.4944 20.0321C32.6727 21.11 34.2416 21.7679 35.9643 21.7679C39.6232 21.7679 42.5893 18.8018 42.5893 15.1429C42.5893 11.484 39.6232 8.51786 35.9643 8.51786C32.3054 8.51786 29.3393 11.484 29.3393 15.1429C29.3393 15.7104 29.4109 16.2612 29.5451 16.7869L21.5055 21.6108C20.3273 20.5329 18.7585 19.875 17.0357 19.875C13.3768 19.875 10.4107 22.8411 10.4107 26.5C10.4107 30.1589 13.3768 33.125 17.0357 33.125C18.7585 33.125 20.3273 32.4671 21.5056 31.3894L29.5453 36.2132C29.4082 36.7505 29.3391 37.3028 29.3394 37.8573C29.3394 41.5162 32.3055 44.4823 35.9644 44.4823C39.6233 44.4823 42.5894 41.5162 42.5894 37.8573C42.5893 34.1982 39.6232 31.2321 35.9643 31.2321Z" fill="#2E4FCC"/>
</svg>
