<svg width="27" height="25" viewBox="0 0 27 25" fill="none" xmlns="http://www.w3.org/2000/svg">
<path d="M13.5 1L16.3064 9.63729H25.3882L18.0409 14.9754L20.8473 23.6127L13.5 18.2746L6.15268 23.6127L8.95911 14.9754L1.61179 9.63729H10.6936L13.5 1Z" fill="#FFD233"/>
<path d="M13.9755 0.845491C13.9086 0.63948 13.7166 0.5 13.5 0.5C13.2834 0.5 13.0914 0.63948 13.0245 0.845491L10.3303 9.13729H1.61179C1.39518 9.13729 1.2032 9.27677 1.13627 9.48278C1.06933 9.68879 1.14266 9.91447 1.3179 10.0418L8.37132 15.1664L5.67716 23.4582C5.61022 23.6642 5.68355 23.8899 5.85879 24.0172C6.03404 24.1445 6.27133 24.1445 6.44658 24.0172L13.5 18.8926L20.5534 24.0172C20.7287 24.1445 20.966 24.1445 21.1412 24.0172C21.3165 23.8899 21.3898 23.6642 21.3228 23.4582L18.6287 15.1664L25.6821 10.0418C25.8573 9.91447 25.9307 9.68879 25.8637 9.48278C25.7968 9.27677 25.6048 9.13729 25.3882 9.13729H16.6697L13.9755 0.845491Z" stroke="#FFD233" stroke-opacity="0.7" stroke-linecap="round" stroke-linejoin="round"/>
</svg>
